<svg height="100%" viewBox="0 0 512 512" width="100%" xmlns="http://www.w3.org/2000/svg">
<path fill="#ffffff" d="M349.33 69.33H162.67A93.42 93.42 0 0 0 69.33 162.67v186.66A93.42 93.42 0 0 0 162.67 442.67h186.66A93.42 93.42 0 0 0 442.67 349.33V162.67A93.42 93.42 0 0 0 349.33 69.33zm61.34 280a61.4 61.4 0 0 1-61.34 61.34H162.67a61.4 61.4 0 0 1-61.34-61.34V162.67a61.4 61.4 0 0 1 61.34-61.34h186.66a61.4 61.4 0 0 1 61.34 61.34z"/>
<path fill="#ffffff" d="M256 164a92 92 0 1 0 92 92 92.1 92.1 0 0 0-92-92zm0 152a60 60 0 1 1 60-60 60.07 60.07 0 0 1-60 60z"/>
<circle fill="#ffffff" cx="346" cy="166" r="20"/>
</svg>